<?xml version="1.0" encoding="utf-8"?>
<svg version="1.0" width="1000.000000pt" height="500.000000pt" viewBox="1.171 -7.611 942.623 276.347" preserveAspectRatio="xMidYMid meet" xmlns="http://www.w3.org/2000/svg">
  <g transform="matrix(0.1, 0, -0.011823, -0.1, -2.351501, 394.613586)" fill="#3B82F6" stroke="none" style="">
    <path d="M2177 3839 c-38 -29 -105 -181 -164 -371 -3 -10 -11 -18 -18 -18 -12 0 -41 -50 -64 -112 -12 -31 -26 -36 -35 -13 -6 18 -42 20 -52 3 -4 -7 -13 4 -23 28 -30 73 -61 124 -76 124 -21 0 -40 -34 -71 -130 -38 -120 -109 -297 -166 -419 l-49 -104 -37 35 c-55 52 -168 128 -190 128 -11 0 -36 -13 -56 -29 -20 -16 -50 -33 -66 -36 -38 -8 -88 -67 -136 -158 -58 -112 -117 -197 -186 -268 -73 -74 -251 -235 -288 -262 -24 -17 -17 -17 222 -14 228 3 249 4 269 22 15 13 20 15 15 5 -4 -8 13 7 38 34 25 28 44 51 42 53 -2 2 -22 0 -45 -6 -22 -5 -41 -7 -41 -5 0 3 21 14 48 25 45 20 46 21 27 36 -20 15 -19 15 3 8 l23 -7 -16 39 c-9 21 -20 45 -23 53 -3 8 26 -17 65 -56 110 -111 381 -299 401 -279 4 3 -34 43 -83 88 -50 44 -115 106 -145 136 -30 31 -73 68 -95 83 -22 15 -69 48 -105 73 -36 25 -68 45 -72 45 -4 0 -22 -13 -40 -29 l-33 -29 40 123 40 122 35 -21 c20 -11 45 -27 55 -34 11 -7 107 -55 213 -108 105 -52 192 -96 192 -99 0 -6 -28 5 -130 52 -47 22 -92 42 -100 46 -8 3 -32 13 -53 22 -22 9 -36 11 -32 6 3 -6 13 -11 21 -11 8 0 14 -6 14 -12 0 -20 54 -60 310 -235 l236 -161 72 -4 c61 -4 72 -2 67 10 -4 12 -3 12 9 3 17 -14 96 -24 96 -12 0 5 -28 28 -62 52 -80 55 -180 134 -238 188 -34 32 -22 25 50 -27 233 -168 340 -241 340 -234 0 5 -55 47 -122 94 -68 48 -177 128 -243 178 -105 80 -124 91 -151 86 -32 -4 -66 12 -91 44 -7 8 -35 56 -63 105 -28 50 -58 101 -67 115 -9 14 17 -10 57 -53 74 -80 177 -164 187 -153 5 5 -51 205 -72 259 -12 29 1 19 28 -22 38 -56 197 -221 288 -297 88 -73 179 -120 198 -101 10 9 12 9 9 -2 -2 -7 6 -15 17 -17 11 -2 -11 25 -55 64 -88 79 -151 143 -228 232 -31 36 -90 102 -130 148 -41 45 -70 82 -65 82 4 0 13 -8 20 -19 13 -21 74 -67 72 -54 -4 20 2 24 18 12 16 -12 16 -11 -1 16 -10 17 -30 45 -44 64 -59 80 7 10 92 -98 109 -137 178 -203 311 -297 220 -157 334 -245 364 -281 18 -21 28 -29 22 -17 -18 37 -125 129 -263 225 -73 51 -173 125 -223 164 -124 98 -241 246 -279 351 -8 21 -23 64 -35 94 l-22 55 27 -35 c40 -52 125 -133 131 -126 4 3 -2 16 -13 28 -10 12 -2 8 20 -10 21 -18 44 -31 52 -28 8 3 14 0 15 -7 0 -7 4 -3 8 7 6 17 10 15 29 -15 12 -19 22 -29 22 -23 0 9 -78 129 -118 179 -8 11 8 -4 37 -34 41 -41 55 -50 62 -40 7 12 9 11 10 -1 1 -8 0 -19 -1 -25 -1 -5 2 -7 6 -2 4 4 26 -10 48 -30 44 -41 45 -42 -99 127 -127 150 -154 190 -79 117 l60 -57 12 47 c15 54 24 50 51 -27 22 -61 26 -55 37 60 l8 75 7 -64 c9 -74 14 -91 28 -91 5 0 7 17 5 37 -4 35 -4 36 14 20 10 -9 24 -17 31 -17 6 0 16 -10 21 -22 l9 -23 0 23 c1 12 -4 22 -10 22 -5 0 -7 5 -4 10 4 6 1 18 -6 26 -6 8 -10 17 -7 19 2 2 17 -18 33 -45 16 -28 33 -50 37 -50 4 0 8 -6 8 -12 0 -7 18 -33 41 -58 22 -25 57 -65 77 -90 43 -52 53 -61 64 -54 4 3 8 -1 8 -8 0 -7 24 -35 52 -63 29 -27 43 -39 31 -25 -51 60 -257 482 -251 513 1 7 -11 49 -26 95 -15 46 -26 86 -23 89 3 3 45 -18 92 -47 91 -55 112 -80 29 -34 -27 15 -55 31 -61 37 -7 5 -13 6 -12 1 0 -5 38 -40 85 -79 85 -70 178 -161 137 -134 -12 8 -50 33 -84 57 l-62 44 31 -40 c41 -52 166 -162 207 -184 18 -10 43 -30 55 -45 12 -16 41 -48 64 -73 23 -25 46 -52 50 -60 4 -8 -30 24 -76 71 -69 72 -96 92 -163 123 l-80 37 40 -33 c41 -34 53 -46 214 -213 97 -101 66 -76 -89 70 -95 90 -92 85 45 -75 54 -63 93 -116 86 -118 -7 -2 -6 -8 3 -18 19 -19 32 -18 16 1 -9 10 -9 15 -1 15 10 0 15 -14 9 -24 -2 -2 5 -13 15 -24 11 -12 16 -25 13 -31 -3 -5 0 -15 7 -23 7 -7 13 -15 13 -18 -2 -14 35 -51 92 -94 69 -52 83 -70 25 -31 -21 14 -56 37 -78 51 -22 15 -53 38 -70 53 -16 14 4 -12 45 -58 41 -45 92 -98 114 -117 111 -92 108 -87 39 -54 -68 33 -73 34 -73 20 0 -5 7 -10 15 -10 8 0 15 -9 15 -19 0 -11 5 -23 11 -26 6 -4 8 -13 5 -21 -4 -12 -2 -12 14 -4 16 9 18 8 13 -6 -4 -11 12 -33 53 -71 64 -59 38 -45 -74 39 -97 73 -221 152 -402 256 -91 52 -196 116 -234 144 -37 27 -70 47 -73 45 -11 -11 135 -107 322 -212 222 -125 574 -372 561 -394 -8 -12 5 -13 169 -17 128 -3 147 -2 132 10 -46 36 -237 210 -268 244 -77 86 -132 175 -217 352 -33 69 -80 168 -105 220 -54 113 -99 170 -132 170 -66 0 -91 34 -160 215 -50 130 -126 321 -136 342 -20 37 -67 83 -87 83 -11 0 -31 -9 -45 -21z m83 -206 c36 -37 56 -60 46 -52 -11 8 -29 24 -40 35 -49 50 -79 84 -75 84 2 0 34 -30 69 -67z m-117 -378 c4 -8 3 -16 -1 -19 -4 -3 -9 4 -9 15 -2 23 3 25 10 4z m-279 -251 c3 -8 2 -12 -4 -9 -6 3 -10 10 -10 16 0 14 7 11 14 -7z m-545 -229 c29 -41 50 -75 47 -75 -2 0 -24 28 -48 63 -53 76 -60 87 -55 87 3 0 28 -34 56 -75z m299 -155 c7 -11 11 -20 9 -20 -2 0 -12 9 -22 20 -10 11 -14 20 -9 20 5 0 15 -9 22 -20z" fill="#3B82F6"/>
    <path d="M2110 3171 c0 -6 4 -13 10 -16 6 -3 7 1 4 9 -7 18 -14 21 -14 7z" fill="#3B82F6"/>
    <path d="M2198 3074 c-3 -3 7 -19 24 -36 16 -16 31 -28 33 -27 6 7 -51 69 -57 63z" fill="#3B82F6"/>
    <path d="M3976 2913 c-3 -10 -26 -117 -51 -238 -25 -121 -48 -228 -51 -238 -5 -16 2 -18 82 -15 l88 3 47 223 c26 122 49 236 53 252 l6 30 -85 0 c-71 0 -84 -3 -89 -17z" fill="#4B5563"/>
    <path d="M1830 2880 c97 -128 215 -220 504 -391 110 -65 172 -109 204 -144 32 -34 40 -40 27 -19 -31 50 -116 113 -300 221 -208 123 -277 175 -385 289 -46 49 -69 69 -50 44z" fill="#3B82F6"/>
    <path d="M3477 2668 c-59 -128 -107 -236 -107 -240 0 -5 20 -8 43 -8 l44 0 26 60 26 60 60 0 c60 0 61 0 61 -29 0 -16 3 -43 6 -60 l7 -31 94 0 94 0 -6 43 c-8 59 -45 407 -45 424 0 10 -23 13 -98 13 l-98 0 -107 -232z m142 -35 c1 -32 0 -33 -40 -33 -29 0 -40 4 -36 13 3 6 18 41 33 77 l29 65 7 -45 c3 -25 7 -60 7 -77z" fill="#4B5563"/>
    <path d="M4690 2880 c-24 -24 -26 -72 -4 -94 23 -24 109 -21 134 4 25 25 26 72 2 93 -27 25 -106 23 -132 -3z" fill="#4B5563"/>
    <path d="M5967 2893 c-4 -3 -7 -16 -7 -28 0 -20 4 -21 55 -17 30 2 55 1 55 -4 0 -5 -18 -94 -40 -198 -22 -104 -40 -198 -40 -208 0 -17 8 -19 87 -16 l86 3 33 155 c17 85 37 181 44 213 l11 57 59 0 c56 0 70 8 70 41 0 10 -403 13 -413 2z" fill="#4B5563"/>
    <path d="M2090 2803 c0 -11 147 -108 285 -188 129 -75 292 -193 363 -262 34 -34 49 -44 37 -26 -10 17 7 4 46 -32 42 -41 57 -51 44 -30 -16 25 -10 22 39 -20 32 -27 64 -58 72 -69 26 -38 14 0 -15 45 -31 50 -58 73 -206 182 -105 77 -174 120 -315 195 -110 58 -243 137 -302 180 -27 19 -48 30 -48 25z"/>
    <path d="M4390 2743 c-8 -3 -23 -12 -32 -21 -16 -13 -18 -13 -24 2 -5 13 -20 16 -75 16 -63 0 -69 -2 -74 -22 -19 -82 -85 -403 -85 -414 0 -11 19 -14 83 -14 l83 0 14 68 c18 94 17 92 48 76 15 -8 51 -14 81 -14 47 0 57 4 86 33 61 61 87 217 44 271 -18 23 -27 26 -77 25 -31 0 -64 -3 -72 -6z m-2 -101 c2 -12 -4 -47 -13 -78 -15 -53 -37 -76 -55 -58 -11 11 15 131 32 151 15 18 32 11 36 -15z" fill="#4B5563"/>
    <path d="M5083 2731 c-26 -16 -32 -17 -37 -5 -4 10 -24 14 -75 14 -65 0 -71 -2 -76 -22 -3 -13 -16 -77 -30 -143 -14 -66 -28 -128 -31 -138 -5 -16 2 -18 82 -15 l88 3 23 109 c13 60 28 115 34 123 15 17 39 17 39 0 0 -13 -37 -189 -46 -219 -5 -16 3 -18 80 -18 97 0 86 -13 116 134 25 123 25 151 0 176 -28 28 -122 28 -167 1z" fill="#4B5563"/>
    <path d="M5437 2736 c-80 -29 -124 -104 -115 -196 9 -87 59 -120 185 -120 83 0 144 13 161 33 6 6 13 29 17 50 l7 37 -68 0 c-66 0 -70 -1 -86 -30 -29 -52 -63 -29 -51 34 l5 26 104 0 c103 0 105 0 114 26 19 48 12 98 -16 125 -23 22 -36 24 -122 27 -65 1 -110 -3 -135 -12z m131 -89 c3 -36 3 -37 -32 -37 -42 0 -43 4 -16 48 25 41 44 37 48 -11z" fill="#4B5563"/>
    <path d="M6536 2729 c-23 -18 -27 -18 -32 -5 -5 12 -22 16 -75 16 -63 0 -69 -2 -74 -22 -3 -13 -16 -77 -30 -143 -14 -66 -28 -128 -31 -138 -5 -16 2 -18 82 -15 l88 3 23 110 c28 129 47 155 62 83 6 -31 9 -33 57 -36 l49 -3 16 78 c19 90 17 93 -57 93 -37 0 -59 -6 -78 -21z" fill="#4B5563"/>
    <path d="M6817 2736 c-80 -29 -124 -104 -115 -196 9 -87 59 -120 185 -120 83 0 144 13 161 33 6 6 13 29 17 50 l7 37 -68 0 c-66 0 -70 -1 -86 -30 -29 -52 -63 -29 -51 34 l5 26 104 0 c103 0 105 0 114 26 19 48 12 98 -16 125 -23 22 -36 24 -122 27 -65 1 -110 -3 -135 -12z m131 -89 c3 -36 3 -37 -32 -37 -42 0 -43 4 -16 48 25 41 44 37 48 -11z" fill="#4B5563"/>
    <path d="M7227 2735 c-46 -16 -43 -12 -51 -56 l-6 -35 62 4 c50 4 65 9 83 30 20 23 25 25 39 13 10 -8 16 -25 14 -40 -3 -25 -6 -26 -83 -32 -94 -7 -137 -26 -155 -68 -16 -40 -5 -96 23 -116 27 -19 107 -19 153 0 31 13 36 13 41 0 4 -11 23 -15 73 -15 l68 0 17 73 c37 162 30 217 -30 242 -44 19 -196 19 -248 0z m119 -187 c-8 -40 -33 -63 -53 -47 -7 6 -13 18 -13 25 0 19 36 54 56 54 13 0 15 -7 10 -32z" fill="#4B5563"/>
    <path d="M7671 2736 c-48 -17 -71 -50 -71 -101 0 -50 17 -68 83 -91 59 -20 73 -36 51 -58 -12 -13 -19 -14 -30 -5 -8 6 -14 18 -14 25 0 10 -16 14 -59 14 -58 0 -59 -1 -65 -31 -9 -47 -9 -47 32 -58 64 -18 211 -13 260 9 96 44 80 154 -27 180 -54 13 -77 31 -67 55 8 22 36 18 36 -5 0 -18 7 -20 54 -20 60 0 61 1 70 46 7 29 4 33 -25 43 -42 14 -185 13 -228 -3z" fill="#4B5563"/>
    <path d="M8666 2729 c-23 -18 -27 -18 -32 -5 -5 12 -22 16 -75 16 -63 0 -69 -2 -74 -22 -3 -13 -16 -77 -30 -143 -14 -66 -28 -128 -31 -138 -5 -16 2 -18 82 -15 l88 3 23 110 c28 129 47 155 62 83 6 -31 9 -33 57 -36 l49 -3 16 78 c19 90 17 93 -57 93 -37 0 -59 -6 -78 -21z" fill="#4B5563"/>
    <path d="M8947 2736 c-80 -29 -124 -104 -115 -196 9 -87 59 -120 185 -120 83 0 144 13 161 33 6 6 13 29 17 50 l7 37 -68 0 c-66 0 -70 -1 -86 -30 -29 -52 -63 -29 -51 34 l5 26 104 0 c103 0 105 0 114 26 19 48 12 98 -16 125 -23 22 -36 24 -122 27 -65 1 -110 -3 -135 -12z m131 -89 c3 -36 3 -37 -32 -37 -42 0 -43 4 -16 48 25 41 44 37 48 -11z" fill="#4B5563"/>
    <path d="M9361 2736 c-48 -17 -71 -50 -71 -101 0 -50 17 -68 83 -91 59 -20 73 -36 51 -58 -12 -13 -19 -14 -30 -5 -8 6 -14 18 -14 25 0 10 -16 14 -59 14 -58 0 -59 -1 -65 -31 -9 -47 -9 -47 32 -58 64 -18 211 -13 260 9 96 44 80 154 -27 180 -54 13 -77 31 -67 55 8 22 36 18 36 -5 0 -18 7 -20 54 -20 60 0 61 1 70 46 7 29 4 33 -25 43 -42 14 -185 13 -228 -3z" fill="#4B5563"/>
    <path d="M4645 2718 c-3 -13 -16 -77 -30 -143 -14 -66 -28 -128 -31 -137 -5 -16 3 -18 80 -18 72 0 85 3 90 18 5 16 66 292 66 299 0 2 -38 3 -85 3 -80 0 -85 -1 -90 -22z" fill="#4B5563"/>
    <path d="M8015 2728 c-13 -42 -45 -204 -45 -229 0 -49 39 -79 102 -79 29 0 66 7 83 16 27 14 31 14 41 0 8 -12 29 -16 77 -16 l66 0 11 58 c7 31 22 103 35 160 l22 103 -86 -3 -86 -3 -24 -110 c-14 -66 -30 -115 -40 -122 -32 -24 -34 6 -9 122 l25 115 -84 0 c-58 0 -85 -4 -88 -12z" fill="#4B5563"/>
    <path d="M1930 2620 c52 -51 138 -127 190 -168 52 -42 124 -98 159 -126 35 -28 70 -64 77 -81 7 -16 13 -23 14 -14 0 29 -37 65 -208 203 -92 75 -203 168 -247 207 -76 68 -75 67 15 -21z"/>
    <path d="M1461 2387 c57 -52 88 -76 117 -90 12 -5 22 -14 22 -19 0 -4 9 -8 20 -8 11 0 23 -7 26 -15 4 -8 11 -15 18 -15 6 0 28 -9 49 -20 42 -23 49 -14 12 13 -14 10 -30 15 -37 11 -6 -4 -8 -3 -4 4 6 10 -239 182 -260 182 -5 0 12 -19 37 -43z"/>
    <path d="M2515 2320 c-4 -6 -3 -16 3 -22 6 -6 12 -6 17 2 4 6 3 16 -3 22 -6 6 -12 6 -17 -2z"/>
    <path d="M2680 2320 c0 -5 5 -10 10 -10 6 0 10 5 10 10 0 6 -4 10 -10 10 -5 0 -10 -4 -10 -10z"/>
    <path d="M2582 2265 c0 -16 2 -22 5 -12 2 9 2 23 0 30 -3 6 -5 -1 -5 -18z"/>
    <path d="M2674 2236 c-15 -12 -17 -17 -7 -27 10 -10 16 -9 28 7 26 35 15 46 -21 20z"/>
    <path d="M2570 2222 c0 -35 -115 -116 -352 -247 -84 -47 -147 -85 -140 -85 31 0 386 206 443 257 42 38 64 71 55 81 -3 3 -6 0 -6 -6z"/>
    <path d="M2462 2208 c-14 -14 -16 -38 -4 -38 12 0 32 23 32 37 0 16 -12 17 -28 1z"/>
    <path d="M2727 2165 c-77 -87 -315 -239 -674 -432 -214 -114 -261 -142 -216 -128 21 6 238 121 273 145 8 5 30 17 49 25 127 57 474 280 548 352 41 40 83 95 71 92 -2 0 -25 -24 -51 -54z"/>
    <path d="M2315 2174 c-22 -20 -86 -63 -143 -96 -56 -33 -101 -63 -98 -65 13 -13 250 138 274 175 20 30 14 27 -33 -14z"/>
    <path d="M2828 2136 c-42 -49 -180 -143 -345 -235 -62 -35 -113 -67 -113 -72 0 -10 16 -2 212 113 128 75 227 150 264 200 23 30 27 38 22 38 -2 -1 -20 -20 -40 -44z"/>
    <path d="M2935 2141 c-3 -5 -1 -12 5 -16 5 -3 10 1 10 9 0 18 -6 21 -15 7z"/>
    <path d="M2990 2080 c0 -5 5 -10 10 -10 6 0 10 5 10 10 0 6 -4 10 -10 10 -5 0 -10 -4 -10 -10z"/>
    <path d="M2040 2000 c-9 -6 -10 -10 -3 -10 6 0 15 5 18 10 8 12 4 12 -15 0z"/>
    <path d="M1985 1970 c-3 -5 -2 -10 4 -10 5 0 13 5 16 10 3 6 2 10 -4 10 -5 0 -13 -4 -16 -10z"/>
    <path d="M1895 1920 c-3 -6 1 -7 9 -4 18 7 21 14 7 14 -6 0 -13 -4 -16 -10z"/>
    <path d="M1818 1884 c-16 -8 -28 -17 -28 -19 0 -11 19 -4 41 15 29 23 24 25 -13 4z"/>
    <path d="M2040 1880 c-8 -5 -12 -11 -9 -14 2 -3 11 -1 19 4 8 5 12 11 9 14 -2 3 -11 1 -19 -4z"/>
    <path d="M1940 1829 c-30 -17 -188 -97 -350 -179 -314 -158 -479 -245 -495 -262 -16 -16 905 450 924 468 16 15 -34 -2 -79 -27z"/>
    <path d="M2242 1738 c6 -18 28 -21 28 -4 0 9 -7 16 -16 16 -9 0 -14 -5 -12 -12z"/>
  </g>
</svg>