<?xml version="1.0" standalone="no"?>
<!DOCTYPE svg PUBLIC "-//W3C//DTD SVG 20010904//EN"
 "http://www.w3.org/TR/2001/REC-SVG-20010904/DTD/svg10.dtd">
<svg xmlns="http://www.w3.org/2000/svg" version="1.0" width="1972.000000pt" height="288.000000pt" viewBox="0 0 1972.000000 288.000000" preserveAspectRatio="xMidYMid meet">

<g transform="translate(0.000000,288.000000) scale(0.100000,-0.100000)" fill="#3B82F6" stroke="none">
<path d="M2306 2649 c-54 -47 -73 -85 -150 -300 -59 -163 -76 -202 -96 -212 -20 -10 -55 -75 -93 -172 -2 -5 -16 3 -30 18 -22 23 -30 26 -46 18 -11 -6 -21 -16 -24 -23 -2 -7 -15 12 -28 42 -66 155 -94 185 -131 143 -9 -10 -46 -104 -82 -210 -88 -254 -245 -623 -266 -623 -4 0 -19 15 -32 33 -22 28 -134 112 -228 170 -33 21 -48 16 -115 -38 -22 -18 -55 -35 -72 -39 -65 -15 -102 -59 -203 -247 -34 -63 -87 -148 -118 -189 -74 -100 -347 -362 -487 -468 l-30 -22 280 4 c154 3 291 5 304 5 13 1 42 6 65 13 23 6 45 11 49 10 5 -2 6 2 2 8 -3 5 0 10 9 10 14 0 100 99 93 107 -2 2 -28 -1 -57 -7 -87 -16 -75 -6 49 42 25 9 25 9 -15 33 -41 26 -37 34 6 10 40 -23 41 -19 10 51 -17 36 -30 69 -30 72 0 4 37 -32 82 -78 152 -156 506 -405 535 -377 4 5 -17 32 -48 60 -31 29 -118 111 -195 182 -129 121 -191 171 -330 267 -75 52 -92 53 -143 8 -18 -17 -35 -30 -37 -30 -1 0 4 12 11 27 8 16 30 84 51 153 20 69 38 127 40 129 2 2 38 -17 81 -42 43 -24 201 -106 351 -181 149 -75 272 -138 272 -140 0 -3 -28 8 -62 24 -35 16 -126 58 -203 93 -117 54 -141 62 -146 49 -6 -17 11 -43 24 -35 4 2 7 -2 7 -9 1 -14 37 -41 253 -189 76 -52 203 -139 283 -195 l145 -101 96 -1 95 -1 -18 21 c-18 20 -18 19 18 -1 27 -16 49 -21 85 -19 l48 3 -69 50 c-130 95 -281 215 -346 275 -64 61 -64 60 55 -27 105 -76 220 -158 414 -295 30 -21 57 -36 59 -33 7 6 31 -12 -208 157 -113 80 -248 179 -301 221 -120 94 -133 101 -177 93 -60 -9 -92 20 -168 152 -37 64 -82 142 -101 172 -32 50 -26 45 67 -53 97 -102 207 -197 228 -197 6 0 13 -6 15 -12 4 -10 6 -10 6 0 1 12 -87 311 -104 355 -12 29 1 19 28 -22 38 -57 205 -233 315 -333 105 -95 235 -191 246 -181 3 3 6 1 6 -5 0 -6 6 -9 14 -6 7 3 20 -2 29 -10 21 -22 30 -20 22 5 -6 18 -5 19 14 10 11 -6 18 -17 15 -25 -3 -8 -1 -17 5 -21 7 -4 8 1 4 12 -6 16 -5 16 10 4 9 -7 17 -9 17 -3 0 5 -21 27 -47 48 -137 112 -232 209 -468 479 -150 172 -175 207 -82 116 54 -52 67 -61 73 -48 3 9 11 17 17 17 6 0 8 -3 4 -6 -6 -6 16 -34 27 -34 8 0 -51 98 -83 140 -15 19 -31 42 -35 50 -13 27 74 -73 157 -180 147 -189 235 -269 507 -460 249 -173 343 -250 399 -325 18 -24 20 -25 10 -5 -35 72 -133 157 -389 335 -200 139 -309 226 -391 311 -76 80 -151 179 -185 245 -30 59 -115 271 -111 275 2 2 21 -19 42 -47 41 -54 166 -171 174 -163 3 2 -22 32 -55 67 -56 58 -34 44 49 -32 25 -24 37 -30 37 -20 0 27 28 17 44 -15 13 -26 22 -23 17 7 -3 18 16 4 38 -28 13 -20 26 -33 28 -31 6 6 -79 137 -144 221 l-55 70 82 -85 c47 -50 83 -80 86 -73 3 7 39 -22 86 -70 88 -90 73 -69 -108 145 -66 79 -144 175 -173 213 l-53 70 89 -93 89 -94 13 43 c30 101 30 101 56 34 13 -33 29 -73 36 -90 l13 -30 7 55 c4 30 7 81 8 112 1 31 6 60 11 63 6 4 10 -10 10 -34 0 -62 19 -139 37 -145 22 -9 23 -6 13 39 -11 48 -6 55 19 27 22 -27 28 -27 34 -4 4 16 5 16 6 -1 1 -22 29 -52 39 -42 4 3 -1 11 -11 16 -9 6 -15 14 -12 19 3 4 -2 24 -10 44 -23 55 -17 56 13 1 60 -108 163 -241 289 -372 35 -36 43 -41 51 -27 8 15 10 15 15 0 4 -10 3 -15 -3 -11 -25 16 -5 -15 40 -62 28 -28 50 -49 50 -46 0 3 -17 33 -39 67 -107 171 -320 619 -308 650 3 7 -5 43 -18 81 -12 39 -26 85 -29 102 l-7 33 108 -66 c59 -36 119 -74 133 -85 l25 -20 -35 17 c-19 9 -65 34 -102 55 -36 22 -69 39 -73 39 -3 0 31 -32 77 -72 106 -91 270 -246 241 -227 -13 8 -63 42 -113 77 -49 34 -90 59 -90 53 0 -18 254 -253 299 -276 30 -16 80 -62 141 -131 52 -58 97 -111 99 -118 2 -6 -47 42 -109 107 -61 64 -116 117 -121 117 -6 0 -50 20 -100 44 -49 24 -89 42 -89 41 0 -2 22 -21 48 -42 27 -21 142 -135 258 -253 212 -218 198 -209 -71 44 -82 78 -139 127 -127 110 11 -17 29 -37 38 -45 9 -7 44 -47 77 -89 34 -41 93 -110 132 -154 44 -50 69 -85 67 -97 -2 -11 1 -19 7 -19 6 0 8 -7 5 -15 -4 -8 -1 -15 5 -15 6 0 11 -6 11 -14 0 -8 7 -22 16 -30 8 -9 13 -16 9 -16 -19 0 46 -67 123 -126 142 -109 137 -111 -15 -7 -51 35 -96 63 -99 63 -4 0 -14 8 -23 18 -9 10 -34 31 -56 48 -22 16 23 -36 100 -115 77 -78 175 -170 217 -202 87 -66 116 -99 42 -46 -66 46 -108 67 -138 67 l-25 0 24 -26 c13 -14 23 -31 22 -38 -1 -6 4 -10 11 -8 8 1 12 -3 9 -10 -2 -7 -9 -12 -15 -11 -6 2 -9 -4 -6 -11 3 -8 12 -12 20 -9 8 3 14 0 14 -5 0 -10 61 -73 140 -143 53 -47 17 -24 -115 74 -202 151 -292 208 -670 425 -77 45 -174 106 -215 136 -41 30 -77 52 -80 49 -12 -12 193 -147 400 -263 91 -51 208 -119 260 -152 220 -138 496 -348 493 -374 0 -9 5 -13 12 -10 7 2 18 -1 24 -7 7 -7 77 -12 199 -15 l187 -3 -25 21 c-115 99 -260 234 -336 312 -116 120 -197 254 -364 607 -75 158 -139 281 -166 314 -40 51 -46 55 -96 62 -29 4 -59 12 -66 18 -24 19 -67 115 -181 402 -131 329 -135 337 -184 381 -46 42 -67 43 -111 3z m214 -378 c0 -7 -86 75 -150 144 -40 43 -24 30 43 -35 59 -57 107 -106 107 -109z m-263 -403 c-3 -8 -6 -5 -6 6 -1 11 2 17 5 13 3 -3 4 -12 1 -19z m-1077 -603 c39 -58 69 -105 66 -105 -6 0 -118 156 -135 188 -26 49 1 16 69 -83z m380 -195 c0 -15 -5 -12 -26 11 -19 22 -19 22 4 10 12 -6 22 -16 22 -21z m24 -25 c3 -8 1 -15 -4 -15 -6 0 -10 7 -10 15 0 8 2 15 4 15 2 0 6 -7 10 -15z"/>
<path d="M5449 1828 c-10 -28 -265 -1245 -262 -1250 2 -5 91 -8 197 -8 l192 0 132 623 c73 342 132 625 132 630 0 6 -389 11 -391 5z" fill="#4B5563"/>
<path d="M2217 1780 c7 -25 23 -37 23 -17 0 8 -6 20 -14 26 -12 10 -13 8 -9 -9z"/>
<path d="M2111 1764 c0 -11 3 -14 6 -6 3 7 2 16 -1 19 -3 4 -6 -2 -5 -13z"/>
<path d="M4192 1178 c-149 -321 -272 -589 -272 -595 0 -10 25 -13 94 -13 l93 0 65 143 65 142 165 3 165 2 6 -62 c4 -35 10 -100 13 -145 l7 -83 223 0 224 0 -1 33 c0 17 -28 284 -62 592 l-62 560 -225 3 -225 2 -273 -582z m343 54 c10 -117 15 -215 13 -218 -3 -2 -57 -3 -121 -2 l-115 3 69 155 c102 227 129 283 133 279 2 -2 11 -100 21 -217z" fill="#4B5563"/>
<path d="M7347 1746 c-90 -25 -138 -77 -144 -158 -3 -41 1 -60 17 -86 56 -90 237 -97 321 -13 97 97 59 232 -73 260 -59 13 -60 13 -121 -3z" fill="#4B5563"/>
<path d="M10465 1748 c-18 -54 -31 -138 -22 -147 7 -7 64 -11 144 -11 73 0 133 -2 133 -5 0 -3 -47 -225 -105 -495 -58 -270 -105 -497 -105 -505 0 -13 31 -15 210 -15 209 0 210 0 215 22 3 13 50 234 105 493 56 259 103 478 106 487 5 15 23 18 152 20 l147 3 18 70 c9 39 15 76 12 83 -3 9 -114 12 -505 12 -392 0 -502 -3 -505 -12z" fill="#4B5563"/>
<path d="M2326 1652 c-7 -11 -1 -16 17 -13 4 0 7 -4 7 -9 0 -6 16 -26 35 -46 49 -49 43 -29 -9 30 -28 32 -45 45 -50 38z"/>
<path d="M1890 1540 c0 -6 7 -10 15 -10 8 0 15 2 15 4 0 2 -7 6 -15 10 -8 3 -15 1 -15 -4z"/>
<path d="M1848 1405 c148 -188 288 -299 602 -480 235 -136 335 -213 374 -290 9 -16 16 -24 16 -17 0 45 -94 143 -206 214 -38 24 -123 75 -189 112 -277 159 -431 282 -624 501 -29 33 -17 15 27 -40z"/>
<path d="M2882 1389 c4 -12 48 -46 48 -37 0 2 -12 15 -26 27 -15 13 -24 17 -22 10z"/>
<path d="M6535 1375 c-78 -21 -105 -33 -157 -71 l-48 -34 -9 22 c-5 13 -12 38 -16 56 l-7 32 -158 0 c-155 0 -158 0 -163 -22 -36 -143 -227 -1074 -223 -1084 4 -11 44 -14 196 -14 104 0 190 2 190 4 0 3 20 98 45 213 25 114 45 209 45 211 0 2 11 -9 24 -25 61 -73 215 -118 320 -94 154 34 248 171 292 424 29 166 4 296 -67 350 -63 47 -164 59 -264 32z m-67 -205 c14 -29 9 -104 -15 -215 -35 -161 -107 -234 -171 -175 -28 26 -28 29 8 196 39 179 35 167 78 198 45 32 81 31 100 -4z" fill="#4B5563"/>
<path d="M8330 1372 c-66 -22 -114 -46 -158 -79 -31 -24 -52 -24 -52 0 0 7 -5 29 -11 50 l-10 37 -158 0 -158 0 -32 -147 c-17 -82 -55 -260 -85 -398 -29 -137 -51 -253 -49 -257 2 -5 91 -8 197 -8 l192 0 59 283 c56 266 61 284 91 314 40 41 78 51 104 28 11 -10 20 -28 20 -39 0 -12 -27 -145 -59 -296 -32 -151 -56 -278 -54 -282 2 -5 90 -8 194 -8 143 0 191 3 194 13 10 25 117 534 122 579 11 96 -20 159 -101 200 -58 30 -172 34 -246 10z" fill="#4B5563"/>
<path d="M9262 1380 c-138 -20 -278 -89 -340 -168 -97 -122 -128 -321 -72 -450 40 -91 125 -155 240 -182 111 -27 365 -16 483 20 96 30 111 47 136 159 11 51 18 97 15 102 -3 5 -74 9 -158 9 l-154 0 -12 -30 c-22 -53 -66 -106 -103 -123 -41 -20 -60 -15 -76 19 -12 27 -15 132 -5 183 l7 31 261 0 262 0 18 38 c29 59 36 92 37 165 1 118 -59 187 -196 222 -63 16 -247 19 -343 5z m168 -150 c21 -21 25 -54 14 -134 l-7 -46 -93 0 c-109 0 -109 0 -65 88 50 99 108 135 151 92z" fill="#4B5563"/>
<path d="M11970 1381 c-46 -14 -92 -42 -136 -83 -47 -44 -47 -44 -61 32 l-9 45 -161 3 c-147 2 -162 1 -167 -15 -8 -25 -166 -772 -166 -784 0 -5 81 -9 200 -9 199 0 200 0 205 23 12 53 115 529 115 532 0 3 14 12 30 20 61 32 88 -3 97 -122 l6 -73 113 0 c63 0 114 3 114 8 0 4 18 92 40 196 22 104 40 193 40 197 0 4 -18 14 -40 23 -42 17 -173 21 -220 7z" fill="#4B5563"/>
<path d="M12685 1375 c-268 -59 -407 -232 -393 -491 12 -220 155 -323 449 -324 168 0 362 42 401 88 17 19 61 199 52 213 -3 5 -76 9 -162 9 l-157 0 -18 -45 c-10 -24 -37 -60 -59 -80 -81 -74 -125 -24 -112 127 l7 78 258 0 259 0 20 33 c29 46 41 99 41 173 0 116 -61 184 -196 219 -74 19 -304 19 -390 0z m216 -152 c14 -17 17 -100 5 -147 -6 -25 -8 -26 -97 -26 -102 0 -99 -5 -56 88 40 87 113 129 148 85z" fill="#4B5563"/>
<path d="M13738 1380 c-68 -12 -157 -39 -199 -61 -35 -17 -39 -24 -54 -94 -10 -41 -14 -82 -11 -90 4 -12 30 -15 144 -15 l139 0 12 39 c16 55 52 81 112 81 38 0 51 -4 63 -22 17 -24 20 -65 10 -116 l-6 -30 -177 -4 c-196 -5 -250 -18 -334 -82 -64 -49 -91 -106 -91 -191 0 -80 23 -136 73 -178 104 -87 301 -72 433 34 l37 29 16 -55 16 -55 159 0 c143 0 159 2 164 18 2 9 25 112 50 229 68 314 62 411 -27 490 -69 61 -132 76 -317 79 -91 1 -186 -1 -212 -6z m178 -447 c-18 -99 -36 -141 -70 -162 -43 -27 -80 -27 -107 0 -17 17 -20 30 -16 66 8 76 77 128 176 132 22 1 23 -2 17 -36z" fill="#4B5563"/>
<path d="M14814 1376 c-124 -28 -226 -100 -260 -182 -22 -53 -18 -144 9 -195 30 -57 86 -91 210 -128 140 -41 177 -82 122 -136 -17 -18 -35 -25 -63 -25 -48 0 -69 21 -74 75 l-3 40 -135 0 -135 0 -17 -75 c-28 -127 -28 -126 46 -149 107 -33 216 -44 380 -38 115 4 167 10 217 26 121 38 189 101 208 193 32 147 -47 241 -242 288 -51 13 -104 29 -119 37 -65 32 -31 132 44 133 33 0 48 -24 48 -79 l0 -41 129 0 129 0 21 85 c31 124 34 118 -61 150 -74 25 -100 29 -238 31 -106 3 -174 -1 -216 -10z" fill="#4B5563"/>
<path d="M17320 1381 c-46 -14 -92 -42 -136 -83 -47 -44 -47 -44 -61 32 l-9 45 -161 3 c-147 2 -162 1 -167 -15 -7 -24 -166 -774 -166 -785 0 -4 90 -8 200 -8 199 0 200 0 205 23 12 53 115 529 115 532 0 3 14 12 31 21 63 32 99 -23 99 -151 l0 -45 115 0 c63 0 115 3 115 8 0 4 18 92 40 196 22 104 40 193 40 197 0 4 -18 14 -40 23 -42 17 -173 21 -220 7z" fill="#4B5563"/>
<path d="M18035 1376 c-270 -62 -407 -233 -393 -492 12 -220 155 -323 449 -324 168 0 362 42 401 88 17 19 61 199 52 213 -3 5 -76 9 -162 9 l-157 0 -18 -45 c-10 -24 -37 -60 -59 -80 -81 -74 -125 -24 -112 127 l7 78 261 0 262 0 18 38 c29 59 36 92 37 164 1 111 -39 166 -149 209 -49 19 -80 23 -217 25 -109 2 -179 -1 -220 -10z m216 -153 c14 -17 17 -100 5 -147 -6 -25 -8 -26 -97 -26 -102 0 -99 -5 -56 88 40 87 113 129 148 85z" fill="#4B5563"/>
<path d="M19054 1376 c-124 -28 -226 -100 -260 -182 -22 -53 -18 -144 9 -195 30 -57 86 -91 210 -128 140 -41 177 -82 122 -136 -17 -18 -35 -25 -63 -25 -48 0 -69 21 -74 75 l-3 40 -135 0 -135 0 -17 -75 c-28 -127 -28 -126 46 -149 107 -33 216 -44 380 -38 115 4 167 10 217 26 121 38 189 101 208 193 32 147 -47 241 -242 288 -51 13 -104 29 -119 37 -65 32 -31 132 44 133 33 0 48 -24 48 -79 l0 -41 129 0 129 0 21 85 c31 124 34 118 -61 150 -74 25 -100 29 -238 31 -106 3 -174 -1 -216 -10z" fill="#4B5563"/>
<path d="M7121 1233 c-17 -82 -55 -260 -85 -398 -29 -137 -50 -253 -47 -258 4 -4 93 -6 197 -5 l189 3 86 395 c47 217 84 398 82 403 -2 4 -91 7 -197 7 l-193 0 -32 -147z" fill="#4B5563"/>
<path d="M15610 1377 c0 -2 -27 -127 -60 -277 -77 -353 -78 -395 -3 -472 50 -52 114 -71 211 -66 90 5 171 34 234 82 l43 34 15 -52 16 -51 162 -3 c89 -1 162 -1 162 2 0 2 38 182 85 399 47 217 85 397 85 401 0 3 -90 6 -199 6 -181 0 -200 -2 -205 -17 -3 -10 -30 -135 -61 -278 -31 -143 -58 -267 -61 -275 -6 -23 -67 -60 -97 -60 -57 0 -54 33 43 474 16 77 30 144 30 148 0 4 -90 8 -200 8 -110 0 -200 -1 -200 -3z" fill="#4B5563"/>
<path d="M2195 1290 c11 -17 170 -121 330 -215 235 -138 441 -289 535 -392 50 -55 53 -45 7 22 -12 17 18 -9 66 -58 48 -48 87 -85 87 -83 0 3 -10 22 -22 43 -20 34 -15 31 53 -32 41 -38 84 -81 97 -95 l23 -25 -22 45 c-37 76 -69 108 -231 230 -157 119 -295 206 -476 302 -146 77 -278 155 -364 214 -77 54 -95 63 -83 44z"/>
<path d="M1970 1069 c69 -68 193 -178 275 -243 83 -66 178 -142 212 -169 34 -27 69 -63 77 -81 12 -24 16 -27 16 -11 0 33 -42 72 -251 238 -108 85 -254 208 -325 272 l-129 117 125 -123z"/>
<path d="M2974 1061 c20 -22 26 -25 26 -13 0 4 -10 13 -22 21 -23 14 -23 14 -4 -8z"/>
<path d="M1046 1056 c3 -8 12 -12 21 -9 12 5 12 7 1 14 -20 13 -28 11 -22 -5z"/>
<path d="M1320 801 c0 -15 110 -112 120 -106 6 3 10 0 10 -7 0 -7 21 -26 48 -43 26 -16 51 -35 55 -42 5 -7 13 -11 18 -7 6 3 20 -3 33 -15 12 -11 33 -22 46 -23 14 -2 36 -13 50 -25 26 -24 40 -29 40 -14 0 10 -118 98 -261 193 -90 60 -159 98 -159 89z"/>
<path d="M2960 665 c0 -8 7 -15 15 -15 8 0 15 7 15 15 0 8 -7 15 -15 15 -8 0 -15 -7 -15 -15z"/>
<path d="M2747 655 c-8 -18 11 -31 25 -17 11 11 3 32 -12 32 -4 0 -10 -7 -13 -15z"/>
<path d="M2841 584 c0 -11 3 -14 6 -6 3 7 2 16 -1 19 -3 4 -6 -2 -5 -13z"/>
<path d="M2953 555 c-23 -16 -21 -45 3 -45 13 0 44 37 44 52 0 13 -24 9 -47 -7z"/>
<path d="M3100 563 c0 -29 -96 -134 -180 -197 -102 -76 -356 -239 -486 -312 -47 -27 -80 -50 -74 -52 25 -9 456 259 587 364 88 72 177 184 159 202 -3 3 -6 1 -6 -5z"/>
<path d="M2830 551 c0 -19 -80 -100 -145 -146 -60 -43 -363 -219 -463 -269 -30 -15 -51 -30 -48 -33 10 -10 383 194 506 277 92 62 175 158 156 178 -3 3 -6 0 -6 -7z"/>
<path d="M2528 510 c-18 -31 -147 -120 -285 -198 -46 -25 -83 -50 -83 -55 0 -13 148 69 257 143 95 64 139 107 132 129 -2 6 -12 -3 -21 -19z"/>
<path d="M2678 519 c-22 -12 -24 -49 -3 -49 14 0 35 29 35 49 0 14 -10 13 -32 0z"/>
<path d="M3196 473 c-20 -40 -119 -130 -203 -185 -37 -25 -140 -87 -228 -138 -210 -122 -223 -130 -205 -130 18 0 304 162 418 237 45 30 109 79 142 110 59 54 107 119 97 129 -3 3 -12 -7 -21 -23z"/>
<path d="M2265 450 c-3 -5 -1 -10 4 -10 6 0 11 5 11 10 0 6 -2 10 -4 10 -3 0 -8 -4 -11 -10z"/>
<path d="M3297 434 c-8 -8 1 -24 14 -24 5 0 9 7 9 15 0 15 -12 20 -23 9z"/>
<path d="M2155 390 c-3 -6 1 -7 9 -4 18 7 21 14 7 14 -6 0 -13 -4 -16 -10z"/>
<path d="M3375 360 c-4 -6 -3 -16 3 -22 6 -6 12 -6 17 2 4 6 3 16 -3 22 -6 6 -12 6 -17 -2z"/>
<path d="M2025 320 c-3 -5 -2 -10 4 -10 5 0 13 5 16 10 3 6 2 10 -4 10 -5 0 -13 -4 -16 -10z"/>
<path d="M1975 290 c-3 -6 1 -7 9 -4 18 7 21 14 7 14 -6 0 -13 -4 -16 -10z"/>
<path d="M1905 260 c-3 -5 -2 -10 4 -10 5 0 13 5 16 10 3 6 2 10 -4 10 -5 0 -13 -4 -16 -10z"/>
<path d="M2120 240 c-8 -5 -10 -10 -5 -10 6 0 17 5 25 10 8 5 11 10 5 10 -5 0 -17 -5 -25 -10z"/>
<path d="M1835 220 c-3 -6 1 -7 9 -4 18 7 21 14 7 14 -6 0 -13 -4 -16 -10z"/>
<path d="M2068 214 c-16 -8 -28 -17 -28 -19 0 -11 19 -4 41 15 29 23 24 25 -13 4z"/>
<path d="M2010 180 c-9 -6 -10 -10 -3 -10 6 0 15 5 18 10 8 12 4 12 -15 0z"/>
<path d="M1730 170 c-8 -5 -10 -10 -5 -10 6 0 17 5 25 10 8 5 11 10 5 10 -5 0 -17 -5 -25 -10z"/>
<path d="M1940 145 c-17 -10 -20 -14 -9 -15 9 0 22 7 29 15 15 18 12 18 -20 0z"/>
<path d="M1664 134 c-18 -14 -18 -15 4 -4 12 6 22 13 22 15 0 8 -5 6 -26 -11z"/>
<path d="M1586 95 c-11 -8 -15 -15 -9 -15 6 0 16 7 23 15 16 19 11 19 -14 0z"/>
<path d="M1827 89 c-22 -11 -37 -23 -34 -25 5 -6 87 33 87 41 0 9 -14 4 -53 -16z"/>
<path d="M2133 89 c-25 -9 -30 -19 -10 -19 15 0 43 17 37 23 -3 3 -15 1 -27 -4z"/>
<path d="M1497 54 c-16 -9 -27 -18 -24 -20 7 -7 57 18 57 28 0 10 1 10 -33 -8z"/>
<path d="M2032 38 c-34 -17 -60 -34 -57 -36 7 -7 125 51 125 61 0 9 5 11 -68 -25z"/>
</g>
</svg>
